<svg width="24" height="24" viewBox="0 0 24 24" xmlns="http://www.w3.org/2000/svg">
    <g fill="none" fill-rule="evenodd">
        <path d="M0 0h24v24H0z"/>
        <path d="M11.391 4.733c.196-.415.294-.623.426-.69a.407.407 0 0 1 .366 0c.132.067.23.275.426.69l1.856 3.944c.058.123.086.184.129.232a.427.427 0 0 0 .132.1c.056.028.12.038.25.057l4.15.637c.438.067.657.1.758.212a.46.46 0 0 1 .112.365c-.019.153-.177.314-.494.638L16.5 13.986a.963.963 0 0 0-.17.2.46.46 0 0 0-.05.163 1.02 1.02 0 0 0 .025.267l.709 4.333c.074.457.112.686.041.821a.426.426 0 0 1-.295.226c-.145.028-.34-.08-.732-.296l-3.71-2.047c-.117-.064-.174-.096-.235-.108a.404.404 0 0 0-.164 0c-.06.012-.118.044-.234.108L7.973 19.7c-.392.216-.587.324-.732.296a.426.426 0 0 1-.295-.226c-.07-.135-.033-.364.041-.82l.709-4.334c.022-.135.033-.203.026-.267a.46.46 0 0 0-.05-.163.96.96 0 0 0-.172-.2l-3.002-3.068c-.317-.324-.475-.485-.494-.638a.46.46 0 0 1 .112-.365c.101-.112.32-.145.757-.212l4.152-.637c.129-.02.193-.03.25-.057a.426.426 0 0 0 .131-.1c.043-.048.071-.11.13-.232l1.855-3.944z" stroke="#777" stroke-linecap="round" stroke-linejoin="bevel"/>
    </g>
</svg>
