<svg width="24" height="24" viewBox="0 0 24 24" xmlns="http://www.w3.org/2000/svg">
    <g fill="none" fill-rule="evenodd">
        <path d="M0 0h24v24H0z"/>
        <path d="M9 5.002a1 1 0 1 0 0 2 1 1 0 0 0 0-2zm-2.83 0a3.001 3.001 0 0 1 5.66 0H19a1 1 0 1 1 0 2h-7.17a3 3 0 0 1-5.66 0H5a1 1 0 0 1 0-2h1.17zm8.83 6a1 1 0 1 0 0 2 1 1 0 0 0 0-2zm-2.83 0a3 3 0 0 1 5.66 0H19a1 1 0 0 1 0 2h-1.17a3 3 0 0 1-5.66 0H5a1 1 0 1 1 0-2h7.17zm-3.17 6a1 1 0 1 0 0 2 1 1 0 0 0 0-2zm-2.83 0a3.001 3.001 0 0 1 5.66 0H19a1 1 0 0 1 0 2h-7.17a3 3 0 0 1-5.66 0H5a1 1 0 1 1 0-2h1.17z" fill="#FFF" fill-rule="nonzero"/>
    </g>
</svg>
