<svg width="20" height="20" viewBox="0 0 20 20" xmlns="http://www.w3.org/2000/svg">
    <g fill="none" fill-rule="evenodd">
        <path d="M0 0h20v20H0z"/>
        <path d="M10 14.365a2.502 2.502 0 0 0-2.499 2.504A2.502 2.502 0 0 0 10 19.375a2.502 2.502 0 0 0 2.499-2.506A2.502 2.502 0 0 0 10 14.365m0-9.657c.345 0 .625-.28.625-.626v-2.83a.626.626 0 1 0-1.25 0v2.83c0 .345.28.626.625.626" fill="#F2530D"/>
        <path d="m17.362 14.967-.986-1.684V8.676c0-3.506-2.859-6.362-6.373-6.362-3.514 0-6.372 2.856-6.372 6.362v4.553l-1.028 1.803c-.164.368-.131.79.088 1.129.218.34.592.544.998.544h12.622c.406 0 .781-.205 1.001-.548.219-.34.247-.765.05-1.19" fill="#FFA30F"/>
    </g>
</svg>
