<svg width="84" height="84" viewBox="0 0 84 84" xmlns="http://www.w3.org/2000/svg">
    <g fill="none" fill-rule="evenodd">
        <path d="M6.146 4.098h73.756v73.756H6.146z"/>
        <g>
            <circle fill="#7346C4" opacity=".64" cx="42" cy="42" r="42"/>
            <g fill="#FFF">
                <path d="M26.788 39.625a2.472 2.472 0 0 1 3.576 0l8.94 9.366c1 1.048 1 2.697 0 3.746a2.472 2.472 0 0 1-3.577 0l-8.94-9.365c-1-1.049-1-2.698 0-3.747z"/>
                <path d="M57.768 30.806a2.55 2.55 0 0 1 0 3.612L39.635 52.48a2.57 2.57 0 0 1-3.627 0 2.55 2.55 0 0 1 0-3.612l18.134-18.062a2.57 2.57 0 0 1 3.626 0z"/>
            </g>
        </g>
    </g>
</svg>
